<svg height="90pt" viewBox="130 100 700 711.99943" width="90pt" xmlns="http://www.w3.org/2000/svg"><rect id="backgroundrect" width="100%" height="100%" x="200" y="300" fill="none" stroke="none"/><g class="currentLayer" style=""><title>Layer 1</title><g class="selected" id="svg_15" transform="rotate(45.56466293334961 310.9548645019532,225.52044677734372) "><path d="m97.54627230089044,439.20154868993586 c16.068806425518382,16.09327003110566 42.1227275112622,16.09327003110566 58.19504218525698,0 l79.26342243784089,-79.36676300028827 l-58.191533038611496,-58.26740089252106 l-79.26693158448639,79.37027582268237 c-16.068806425518382,16.089756309371474 -16.068806425518382,42.177645482489666 0,58.26388807012696 zm0,0 " fill="#90a4ae" id="svg_1" class=""/><path d="m155.74131448614744,439.2085752340644 l79.26342243784089,-79.37027672202247 l-29.099275665951236,-29.137213268654627 l-108.35567981050116,108.5004634465488 c16.068805527349287,16.089756309371474 42.119218364616714,16.09327003110566 58.191533038611496,0.00702654412828616 zm0,0 " fill="#78909c" id="svg_2" class=""/><path d="m186.5246572010613,311.291499527332 l108.35918895714664,-108.50397716828299 l38.77213555388804,38.82268515384466 l-108.36269810379213,108.5039762689429 zm0,0 " fill="#90caf9" id="svg_3" class=""/><path d="m205.90897040468258,330.7045980657813 l108.36269720562305,-108.5039762689429 l19.38431410179037,19.413098538449336 l-108.36269810379213,108.50397716828299 zm0,0 " fill="#64b5f6" id="svg_4" class=""/><path d="m251.21037402177717,159.05711045095813 l108.36269720562305,-108.5039762689429 l126.12258807522595,126.28702179242046 l-108.36269720562305,108.5004634465488 zm0,0 " fill="#e6e6e6" id="svg_5" class=""/><path d="m314.27166761030566,222.2006217968384 l108.36269810379213,-108.50397716828299 l40.02816844548812,40.080355612199725 l-108.36269810379213,108.50397716828299 zm0,0 " fill="#bdbdbd" id="svg_6" class=""/><path d="m354.2998360557937,262.2809774090381 l108.36269810379213,-108.50397716828299 l23.033125143040298,23.063155733680553 l-108.36269720562305,108.5039762689429 zm0,0 " fill="#757575" id="svg_7" class=""/><path d="m222.12162399942426,353.2934921986957 l-38.77213555388804,-38.82268515384466 c-1.7542365093360686,-1.7565236145602046 -1.7542365093360686,-4.60209231981778 0,-6.358615035037894 l108.35918895714664,-108.50397716828299 c1.7542374075051606,-1.7565236145602046 4.599608352021443,-1.7565236145602046 6.353844861357512,0 l38.77213555388804,38.82268515384466 c1.750728260859669,1.7565236145602046 1.750728260859669,4.605604242871788 0,6.358615035037894 l-108.36620635226852,108.50397716828299 c-1.7507273626905768,1.7565236145602046 -4.596099205375952,1.7565236145602046 -6.34682746623562,0 zm72.7622221587837,-144.1403282604804 l-102.00885324243463,102.1383355891168 l32.425307189483334,32.46758204186077 l102.00183674548182,-102.1488740562991 zm0,0 " fill="#42a5f5" id="svg_8" class=""/><path d="m94.37110444353443,442.3878827515833 c-17.794975150705074,-17.86033211284816 -17.794975150705074,-46.769197536444985 0,-64.62952964929315 l79.2669306863173,-79.37027582268237 c1.7542365093360686,-1.7530107921661067 4.5961001035450435,-1.7530107921661067 6.350336612881111,0 l58.191533038611496,58.27091371491515 c1.7542365093360686,1.7565236145602046 1.7542365093360686,4.60209231981778 0,6.358615934377985 l-79.26342243784089,79.37027582268237 c-17.837076826929138,17.81817554609871 -46.71180932151627,17.81817554609871 -64.54537789996901,0 zm82.4420994418424,-134.45837009702456 l-76.09176282896128,76.18745548276934 c-14.314569916182313,14.336745517205365 -14.314569916182313,37.575553162671895 0,51.91229867987726 c14.314569916182313,14.333232694811269 37.526627407717164,14.333232694811269 51.84119732389947,0 l76.09176282896128,-76.19096830516342 zm0,0 " fill="#546e7a" id="svg_9" class=""/><path d="m200.5094302044039,136.32418160648496 l136.36031189462668,-136.53809315732377 l36.702136921956026,36.74998683899358 l-136.36031279279578,136.53809405666385 zm0,0 " fill="#90a4ae" id="svg_10" class=""/><path d="m234.03639837083483,176.25347686233755 l-36.69862777531054,-36.74998683899358 c-1.7542365093360686,-1.7565236145602046 -1.7542365093360686,-4.60209231981778 0,-6.358615934377985 l136.35680364615027,-136.53809315732377 c1.7542365093360686,-1.7565236145602046 4.5961001035450435,-1.7565236145602046 6.350336612881111,0 l36.702136023786935,36.74998683899358 c1.7542365093360686,1.7565236145602046 1.7542365093360686,4.6020914204776915 0,6.358615934377985 l-136.36031189462668,136.53809315732377 c-1.7542374075051606,1.7565236145602046 -4.5961001035450435,1.7565236145602046 -6.350336612881111,0 zm102.83334372819576,-170.1087733781385 l-130.00997617991467,130.17947812228587 l30.35530945572041,30.391371803955675 l130.00997617991467,-130.17947812228587 zm0,0 " fill="#546e7a" id="svg_11" class=""/><path d="m363.33415430341677,299.36119113723913 l136.36031279279578,-136.53809405666385 l36.702136023786935,36.749987738333665 l-136.36031189462668,136.53809315732377 zm0,0 " fill="#78909c" id="svg_12" class=""/><path d="m396.8611224698477,339.2869726713575 l-36.702136023786935,-36.74647401659947 c-1.7542365093360686,-1.7565236145602046 -1.7542365093360686,-4.6056051422118784 0,-6.358615934377985 l136.36031189462668,-136.54160597971787 c1.750728260859669,-1.7565236145602046 4.5961001035450435,-1.7565236145602046 6.350336612881111,0 l36.702136023786935,36.75349966138767 c1.750728260859669,1.7530107921661067 1.750728260859669,4.60209231981778 0,6.355103111983888 l-136.36382014310306,136.53809315732377 c-1.750728260859669,1.7565236145602046 -4.5961001035450435,1.7565236145602046 -6.346828364404712,0 zm102.83334462636485,-170.1052596564043 l-130.00997617991467,130.1724515781576 l30.35180030907492,30.398398348083962 l130.00997617991467,-130.17596529989177 zm0,0 " fill="#546e7a" id="svg_13" class=""/><path d="m374.1577942396471,288.5199269385035 l-126.12258897339504,-126.28350897002636 c-1.7507273626905768,-1.7565227152201137 -1.7507273626905768,-4.6020914204776915 0,-6.358615035037894 l108.36971460074493,-108.50397716828299 c1.750728260859669,-1.7565227152201137 4.5961001035450435,-1.7565227152201137 6.346828364404712,0 l126.12258807522595,126.28350897002636 c1.7542365093360686,1.7565236145602046 1.7542365093360686,4.6056051422118784 0,6.3621287567720834 l-108.36620635226852,108.5004634465488 c-1.7542365093360686,1.7565236145602046 -4.5961001035450435,1.7565236145602046 -6.35033571471202,0 zm-14.584723012246888,-231.60817772145032 l-102.00885234426552,102.145361233905 l119.76523496539201,119.92489303564837 l102.01236059274193,-102.14184751217083 zm0,0 " fill="#424242" id="svg_14" class=""/></g></g></svg>