<svg height="80pt" viewBox="10 0 700 711.99943" width="80pt" xmlns="http://www.w3.org/2000/svg"><path d="m18.894531 493.597656c17.890625 17.894532 46.898438 17.894532 64.792969 0l88.25-88.25-64.789062-64.789062-88.253907 88.253906c-17.890625 17.890625-17.890625 46.898438 0 64.785156zm0 0" fill="#90a4ae"/><path d="m83.6875 493.605469 88.25-88.253907-32.398438-32.398437-120.640624 120.644531c17.890624 17.890625 46.894531 17.894532 64.789062.007813zm0 0" fill="#78909c"/><path d="m117.960938 351.371094 120.644531-120.648438 43.167969 43.167969-120.648438 120.648437zm0 0" fill="#90caf9"/><path d="m139.542969 372.957031 120.648437-120.648437 21.582032 21.585937-120.648438 120.648438zm0 0" fill="#64b5f6"/><path d="m189.980469 182.097656 120.648437-120.648437 140.421875 140.421875-120.648437 120.644531zm0 0" fill="#e6e6e6"/><path d="m260.191406 252.308594 120.648438-120.648438 44.566406 44.566406-120.648438 120.648438zm0 0" fill="#bdbdbd"/><path d="m304.757812 296.875 120.648438-120.648438 25.644531 25.644532-120.648437 120.648437zm0 0" fill="#757575"/><path d="m157.59375 398.074219-43.167969-43.167969c-1.953125-1.953125-1.953125-5.117188 0-7.070312l120.644531-120.648438c1.953126-1.953125 5.121094-1.953125 7.074219 0l43.167969 43.167969c1.949219 1.953125 1.949219 5.121093 0 7.070312l-120.652344 120.648438c-1.949218 1.953125-5.117187 1.953125-7.066406 0zm81.011719-160.273438-113.574219 113.570313 36.101562 36.101562 113.566407-113.582031zm0 0" fill="#42a5f5"/><path d="m15.359375 497.140625c-19.8125-19.859375-19.8125-52.003906 0-71.863281l88.253906-88.253906c1.953125-1.949219 5.117188-1.949219 7.070313 0l64.789062 64.792968c1.953125 1.953125 1.953125 5.117188 0 7.070313l-88.25 88.253906c-19.859375 19.8125-52.007812 19.8125-71.863281 0zm91.789063-149.507813-84.71875 84.714844c-15.9375 15.941406-15.9375 41.78125 0 57.722656 15.9375 15.9375 41.78125 15.9375 57.71875 0l84.71875-84.71875zm0 0" fill="#546e7a"/><path d="m133.53125 156.820312 151.820312-151.820312 40.863282 40.863281-151.820313 151.820313zm0 0" fill="#90a4ae"/><path d="m170.859375 201.21875-40.859375-40.863281c-1.953125-1.953125-1.953125-5.117188 0-7.070313l151.816406-151.820312c1.953125-1.953125 5.117188-1.953125 7.070313 0l40.863281 40.863281c1.953125 1.953125 1.953125 5.117187 0 7.070313l-151.820312 151.820312c-1.953126 1.953125-5.117188 1.953125-7.070313 0zm114.492187-189.148438-144.75 144.75 33.796876 33.792969 144.75-144.75zm0 0" fill="#546e7a"/><path d="m314.816406 338.105469 151.820313-151.820313 40.863281 40.863282-151.820312 151.820312zm0 0" fill="#78909c"/><path d="m352.144531 382.5-40.863281-40.859375c-1.953125-1.953125-1.953125-5.121094 0-7.070313l151.820312-151.824218c1.949219-1.953125 5.117188-1.953125 7.070313 0l40.863281 40.867187c1.949219 1.949219 1.949219 5.117188 0 7.066407l-151.824218 151.820312c-1.949219 1.953125-5.117188 1.953125-7.066407 0zm114.492188-189.144531-144.75 144.742187 33.792969 33.800782 144.75-144.746094zm0 0" fill="#546e7a"/><path d="m326.867188 326.050781-140.421876-140.417969c-1.949218-1.953124-1.949218-5.117187 0-7.070312l120.65625-120.648438c1.949219-1.953124 5.117188-1.953124 7.066407 0l140.421875 140.417969c1.953125 1.953125 1.953125 5.121094 0 7.074219l-120.652344 120.644531c-1.953125 1.953125-5.117188 1.953125-7.070312 0zm-16.238282-257.53125-113.574218 113.578125 133.34375 133.347656 113.578124-113.574218zm0 0" fill="#424242"/></svg>